<svg xmlns="http://www.w3.org/2000/svg" xmlns:xlink="http://www.w3.org/1999/xlink" width="500" zoomAndPan="magnify" viewBox="0 0 375 225" height="300" preserveAspectRatio="xMidYMid meet" version="1.0"><defs><g/><clipPath id="2dacf3dc2e"><path d="M 115 15.300781 L 259.75 15.300781 L 259.75 160.050781 L 115 160.050781 Z M 115 15.300781 " clip-rule="nonzero"/></clipPath></defs><g clip-path="url(#2dacf3dc2e)"><path fill="#000000" d="M 248.941406 49.589844 C 248.945312 49.574219 248.953125 49.566406 248.957031 49.554688 C 249.042969 49.324219 248.925781 49.070312 248.695312 48.980469 C 248.648438 48.964844 248.601562 48.988281 248.554688 48.984375 C 235.695312 28.785156 213.121094 15.34375 187.449219 15.34375 C 170.988281 15.34375 155.796875 20.878906 143.621094 30.167969 C 143.480469 30.195312 143.378906 30.28125 143.316406 30.410156 C 126.140625 43.660156 115.042969 64.429688 115.042969 87.753906 C 115.042969 127.679688 147.523438 160.160156 187.449219 160.160156 C 227.371094 160.160156 259.855469 127.675781 259.855469 87.753906 C 259.855469 73.75 255.847656 60.679688 248.941406 49.589844 Z M 247.359375 123.386719 C 243.234375 125.871094 238.242188 128.039062 232.585938 129.847656 C 234.15625 122.890625 235.109375 116.308594 235.542969 110.074219 C 241.542969 108.085938 246.757812 105.703125 250.949219 103 C 251.109375 107.929688 250.984375 112.671875 250.679688 117.113281 C 249.675781 119.265625 248.570312 121.359375 247.359375 123.386719 Z M 158.109375 150.492188 C 156.476562 148.828125 154.953125 147.132812 153.535156 145.394531 C 158.03125 146.621094 163.316406 147.804688 169.171875 148.707031 C 170.839844 151.421875 172.785156 153.988281 175.042969 156.359375 C 169.117188 155.292969 163.453125 153.476562 158.148438 151.015625 C 158.246094 150.839844 158.25 150.632812 158.109375 150.492188 Z M 156.753906 150.347656 C 152.367188 148.1875 148.246094 145.574219 144.4375 142.578125 C 146.566406 143.324219 149.144531 144.15625 152.085938 144.988281 C 153.523438 146.816406 155.078125 148.601562 156.753906 150.347656 Z M 152.605469 144.210938 C 149.265625 139.941406 146.566406 135.464844 144.511719 130.785156 C 150.175781 132.5625 156.5 133.976562 163.242188 135 C 164.507812 139.484375 166.257812 143.75 168.566406 147.710938 C 162.53125 146.75 157.136719 145.484375 152.605469 144.210938 Z M 122.773438 100.65625 C 122.777344 106.496094 123.519531 112.652344 125.195312 119.113281 C 121.617188 112.039062 119.210938 104.28125 118.230469 96.09375 C 119.441406 97.683594 120.96875 99.203125 122.773438 100.65625 Z M 126.765625 121.492188 C 124.683594 114.414062 123.742188 107.703125 123.679688 101.355469 C 127.617188 104.316406 132.75 106.949219 138.804688 109.160156 C 139.003906 116.214844 140.382812 122.941406 142.921875 129.324219 C 136.492188 127.15625 130.980469 124.523438 126.765625 121.492188 Z M 127.515625 78.203125 C 131.515625 80.820312 136.539062 83.148438 142.324219 85.109375 C 140.300781 91.722656 139.007812 98.515625 138.796875 105.359375 C 138.769531 106.277344 138.769531 107.195312 138.78125 108.105469 C 132.671875 105.84375 127.527344 103.167969 123.667969 100.175781 C 123.71875 92.257812 125.160156 84.921875 127.515625 78.203125 Z M 124.214844 58.398438 C 125.71875 56 127.351562 53.738281 129.082031 51.597656 C 130.625 54.195312 133.179688 56.621094 136.566406 58.8125 C 132.824219 64.199219 129.507812 70.222656 127.0625 76.855469 C 123.980469 74.707031 121.59375 72.375 120.042969 69.902344 C 121.097656 65.914062 122.503906 62.070312 124.214844 58.398438 Z M 127.597656 52.011719 C 127.894531 51.519531 128.207031 51.035156 128.515625 50.546875 C 128.546875 50.617188 128.582031 50.691406 128.613281 50.761719 C 128.277344 51.175781 127.929688 51.585938 127.597656 52.011719 Z M 151.101562 28.265625 C 151.222656 28.242188 151.375 28.230469 151.636719 28.21875 C 152.25 28.191406 151.722656 28.46875 151.636719 28.691406 C 151.554688 28.914062 150.96875 29.636719 150.605469 29.972656 C 150.246094 30.304688 149.996094 30.527344 149.742188 31.332031 C 149.496094 32.140625 149.742188 31.945312 149.996094 31.472656 C 150.246094 31 150.773438 30.609375 151.691406 29.914062 C 152.609375 29.222656 152.304688 29.582031 152.777344 29.359375 C 153.25 29.136719 153.613281 28.914062 154.222656 28.578125 C 154.835938 28.246094 154.53125 28.359375 154.972656 27.855469 C 155.417969 27.355469 155.699219 27.414062 156.226562 26.992188 C 156.753906 26.578125 157.03125 26.519531 157.253906 26.300781 C 157.476562 26.078125 157.589844 25.992188 157.84375 25.628906 C 158.089844 25.269531 158.425781 25.214844 158.730469 24.769531 C 159.035156 24.324219 159.203125 24.324219 159.457031 23.988281 C 159.488281 23.945312 159.492188 23.914062 159.511719 23.878906 C 160.859375 23.285156 162.226562 22.722656 163.621094 22.214844 C 163.976562 22.886719 164.488281 23.535156 165.140625 24.148438 C 162.605469 25.277344 159.953125 26.554688 157.25 27.996094 C 157.167969 28.011719 157.082031 28.03125 156.976562 28.050781 C 156.734375 28.09375 156.847656 28.078125 156.65625 28.308594 C 155.652344 28.851562 154.636719 29.417969 153.621094 30.007812 C 153.40625 30.070312 153.1875 30.28125 152.859375 30.390625 C 152.527344 30.5 152.472656 30.609375 152.136719 30.832031 C 152.113281 30.847656 152.125 30.886719 152.105469 30.90625 C 149.953125 32.195312 147.792969 33.582031 145.652344 35.089844 C 145.152344 34.363281 144.78125 33.613281 144.527344 32.855469 C 146.628906 31.207031 148.816406 29.667969 151.101562 28.265625 Z M 152.183594 31.886719 C 152.222656 32.058594 152.242188 32.222656 152.191406 32.335938 C 152.023438 32.722656 152.191406 32.335938 151.800781 32.390625 C 151.472656 32.4375 151.363281 32.527344 150.941406 32.652344 C 151.359375 32.394531 151.773438 32.136719 152.183594 31.886719 Z M 219.347656 27.128906 C 219.769531 27.558594 220.171875 27.9375 220.460938 28.050781 C 221.019531 28.273438 221.460938 28.605469 221.964844 28.996094 C 222.460938 29.390625 225.355469 32.890625 225.355469 32.890625 C 225.355469 32.890625 225.523438 35.230469 227.359375 35.726562 C 228.621094 36.074219 229.441406 36.417969 229.96875 36.722656 C 229.105469 37.613281 228.0625 38.46875 226.859375 39.277344 C 225.699219 38.097656 224.542969 36.976562 223.402344 35.941406 C 218.765625 31.722656 214.042969 28.410156 209.660156 25.792969 C 210.445312 25.320312 211.144531 24.816406 211.730469 24.292969 C 214.320312 25.171875 216.902344 26.117188 219.347656 27.128906 Z M 231.8125 37.121094 C 232.8125 36.839844 232.757812 37.175781 233.925781 37.898438 C 235.09375 38.625 234.929688 38.289062 235.425781 39.570312 C 235.929688 40.851562 236.039062 39.960938 236.039062 41.628906 C 236.039062 43.296875 237.203125 44.351562 237.039062 45.464844 C 236.875 46.578125 237.515625 47.304688 237.058594 48.25 C 236.59375 49.195312 235.871094 49.527344 236.320312 50.085938 C 236.761719 50.640625 236.539062 50.53125 237.601562 50.753906 C 238.652344 50.976562 240.714844 51.476562 241.273438 51.921875 C 241.828125 52.363281 241.996094 53.144531 241.714844 53.535156 C 241.4375 53.921875 241.214844 53.867188 239.824219 54.8125 C 239.527344 55.011719 239.277344 55.148438 239.039062 55.273438 C 237.699219 52.988281 236.304688 50.839844 234.871094 48.839844 C 235.183594 48.65625 235.453125 48.417969 235.558594 48.105469 C 235.667969 47.769531 235.335938 47.988281 235.558594 47.398438 C 235.78125 46.804688 235.59375 47.285156 235.78125 46.804688 C 235.96875 46.320312 236.003906 46.101562 236.003906 46.101562 C 236.003906 46.101562 236.296875 45.835938 236.371094 45.691406 C 236.449219 45.542969 236.480469 45.46875 236.371094 44.988281 C 236.261719 44.503906 236.371094 44.648438 236.039062 44.28125 C 235.703125 43.910156 235.515625 43.761719 235.222656 43.652344 C 234.925781 43.539062 234.777344 43.464844 234.589844 43.429688 C 234.40625 43.390625 234.40625 43.539062 234.074219 43.316406 C 233.738281 43.097656 233.648438 42.980469 233.25 42.871094 C 232.847656 42.761719 232.886719 42.796875 232.402344 42.574219 C 231.917969 42.351562 231.734375 42.238281 231.550781 42.164062 C 231.363281 42.09375 231.878906 42.539062 231.363281 42.09375 C 230.847656 41.648438 230.996094 41.832031 230.847656 41.648438 C 230.695312 41.460938 230.804688 41.757812 230.472656 41.203125 C 230.140625 40.644531 230.140625 40.644531 230.140625 40.644531 L 229.65625 40.386719 C 229.65625 40.386719 229.808594 40.167969 229.4375 40.238281 C 229.28125 40.265625 229.101562 40.386719 228.878906 40.238281 C 228.65625 40.089844 228.542969 39.714844 228.433594 39.867188 C 228.339844 39.996094 227.941406 40.113281 228.046875 40.523438 C 227.84375 40.3125 227.644531 40.097656 227.449219 39.890625 C 228.6875 39.050781 229.761719 38.167969 230.660156 37.246094 C 230.910156 37.476562 230.941406 37.363281 231.8125 37.121094 Z M 243.941406 52.644531 C 243.71875 52.144531 243.71875 50.972656 244.722656 50.917969 C 245.425781 50.878906 246.367188 51.359375 246.871094 51.648438 C 246.210938 52.648438 245.398438 53.625 244.433594 54.570312 C 244.355469 53.308594 244.148438 53.113281 243.941406 52.644531 Z M 244.898438 69.851562 C 244.964844 70.484375 244.832031 71.214844 244.832031 71.671875 C 244.832031 72.175781 244.277344 72.785156 244.054688 73.84375 C 243.828125 74.898438 243.382812 74.34375 243.382812 76.460938 C 243.382812 77.511719 243.320312 79.117188 243.433594 80.683594 C 240.695312 82.015625 237.664062 83.25 234.375 84.363281 C 233.125 76.972656 231.15625 70.3125 228.785156 64.371094 C 233.039062 62.882812 236.773438 61.152344 239.867188 59.230469 C 240.195312 59.679688 240.464844 60.113281 240.601562 60.65625 C 240.773438 61.324219 240.992188 61.714844 241.382812 61.9375 C 241.46875 61.988281 241.550781 62.003906 241.632812 62.015625 C 242.859375 64.597656 243.949219 67.21875 244.898438 69.851562 Z M 210.859375 106.246094 C 210.746094 106.203125 210.644531 106.175781 210.503906 106.117188 C 209.558594 105.726562 209.335938 106.390625 209.335938 105.894531 C 209.335938 105.390625 209.335938 105.5625 209.058594 105.171875 C 208.777344 104.78125 208.277344 104.667969 207.554688 104.386719 C 206.832031 104.109375 207.109375 104.332031 206.832031 104.332031 C 206.550781 104.332031 206.21875 104.5 205.605469 104 C 204.992188 103.5 205.605469 104 205.550781 103.835938 C 205.496094 103.667969 205.828125 103.328125 205.828125 103.328125 C 205.828125 103.328125 205.828125 103.328125 205.496094 103.328125 C 205.160156 103.328125 205.050781 103.109375 204.828125 102.886719 C 204.605469 102.664062 204.214844 102.328125 203.71875 102.328125 C 203.214844 102.328125 203.4375 102.441406 202.992188 102.609375 C 202.546875 102.773438 200.933594 102.773438 200.933594 102.773438 C 200.933594 102.773438 200.378906 102.773438 199.933594 102.773438 C 199.488281 102.773438 199.59375 102.773438 199.207031 102.773438 C 198.816406 102.773438 198.09375 102.609375 198.09375 102.609375 C 198.09375 102.609375 197.761719 102.386719 197.148438 102.167969 C 196.539062 101.945312 196.871094 101.832031 196.3125 101.777344 C 195.757812 101.71875 195.8125 102.167969 195.535156 102.554688 C 195.257812 102.945312 195.535156 102.554688 195.144531 102.773438 C 194.753906 103 194.867188 103.386719 194.925781 103.554688 C 194.976562 103.722656 194.925781 104.222656 194.925781 104.222656 C 194.925781 104.222656 194.367188 104.445312 194.03125 104.277344 C 193.699219 104.109375 194.199219 102.832031 194.199219 102.382812 C 194.199219 101.945312 194.199219 102.382812 194.253906 101.996094 C 194.3125 101.605469 194.753906 101.441406 194.699219 101.273438 C 194.648438 101.105469 193.808594 101.71875 193.589844 101.773438 C 193.367188 101.832031 192.695312 102.277344 191.863281 102.886719 C 191.027344 103.5 191.363281 103.164062 190.914062 103.273438 C 190.472656 103.386719 190.472656 103.386719 190.085938 103.941406 C 189.691406 104.496094 189.859375 104.332031 189.691406 104.445312 C 189.527344 104.554688 188.914062 105.890625 188.914062 105.890625 L 188.191406 105.671875 C 188.191406 105.671875 188.191406 105.671875 187.746094 105.222656 C 187.300781 104.777344 187.746094 104 187.449219 103.664062 C 187.382812 103.59375 187.234375 103.59375 187.050781 103.628906 C 187.027344 100.78125 187.015625 97.921875 187.023438 95.046875 C 187.117188 95.085938 187.238281 95.121094 187.449219 95.179688 C 188.191406 95.375 187.746094 95.316406 188.191406 95.375 C 188.636719 95.433594 188.410156 95.820312 189.023438 95.375 C 189.636719 94.929688 189.636719 95.207031 189.636719 94.929688 C 189.636719 94.652344 188.914062 94.148438 188.441406 94.375 C 187.859375 94.648438 187.1875 94.210938 187.023438 94.375 C 187.023438 93.558594 187.027344 92.738281 187.03125 91.921875 C 187.15625 91.921875 187.28125 91.921875 187.402344 91.921875 C 187.34375 92.007812 187.285156 92.078125 187.449219 92.203125 C 187.742188 92.429688 186.535156 92.261719 187.472656 92.761719 C 188.410156 93.261719 188.355469 93.261719 189.023438 93.207031 C 189.691406 93.148438 189.691406 93.476562 190.304688 93.234375 C 190.914062 92.984375 191.472656 92.648438 191.472656 92.648438 C 191.472656 92.648438 192.191406 92.539062 191.195312 92.261719 C 190.46875 92.058594 189.980469 92.058594 189.558594 91.929688 C 197.09375 91.882812 204.394531 91.371094 211.269531 90.449219 C 211.363281 95.410156 211.242188 100.683594 210.859375 106.246094 Z M 179.175781 97.046875 C 178.734375 96.933594 176.226562 96.933594 175.671875 96.933594 C 175.117188 96.933594 175.785156 95.597656 175.839844 95.320312 C 175.894531 95.042969 176.0625 94.542969 176.175781 94.210938 C 176.289062 93.875 176.453125 93.597656 176.617188 93.207031 C 176.785156 92.820312 176.726562 92.875 176.898438 92.484375 C 177.066406 92.097656 177.175781 91.984375 177.230469 91.707031 C 177.242188 91.652344 177.253906 91.613281 177.261719 91.574219 C 180.175781 91.757812 183.140625 91.875 186.144531 91.917969 C 186.128906 95.933594 186.136719 99.949219 186.167969 103.929688 C 185.605469 104.164062 185.015625 104.449219 184.742188 104.5 C 184.1875 104.613281 183.851562 104.554688 183.464844 104.5 C 183.074219 104.449219 182.296875 104 182.074219 103.777344 C 181.851562 103.554688 181.519531 103.277344 181.519531 103.277344 C 181.519531 103.277344 181.183594 102.773438 181.015625 102.550781 C 180.847656 102.328125 180.90625 102.222656 180.792969 102.054688 C 180.683594 101.886719 180.847656 100.71875 180.847656 100.332031 C 180.847656 99.9375 181.238281 99.605469 181.183594 99.382812 C 181.125 99.15625 179.621094 97.15625 179.175781 97.046875 Z M 173.167969 93.539062 C 172.890625 93.761719 172.558594 93.816406 171.832031 93.816406 C 171.109375 93.816406 170.664062 93.816406 170.21875 93.765625 C 169.777344 93.707031 169.609375 93.652344 169.328125 93.539062 C 169.050781 93.429688 168.101562 93.320312 167.492188 92.820312 C 166.882812 92.316406 167.492188 92.820312 167.269531 92.261719 C 167.046875 91.707031 166.882812 91.480469 166.433594 91.039062 C 166.238281 90.839844 166.070312 90.640625 165.9375 90.453125 C 168.847656 90.84375 171.839844 91.160156 174.894531 91.398438 C 174.527344 91.574219 174.730469 91.644531 174.394531 91.8125 C 173.945312 92.035156 174.058594 92.257812 173.445312 93.316406 C 172.832031 94.375 173.445312 93.316406 173.167969 93.539062 Z M 234.8125 48.660156 C 234.8125 48.660156 234.792969 48.683594 234.777344 48.707031 C 234.160156 47.851562 233.535156 47.015625 232.90625 46.210938 C 232.851562 45.972656 232.824219 45.878906 232.558594 45.765625 C 231.738281 44.726562 230.902344 43.71875 230.070312 42.761719 C 230.554688 42.894531 230.585938 42.824219 230.808594 42.980469 C 231.070312 43.167969 231.144531 43.574219 231.40625 43.726562 C 231.664062 43.875 232.109375 43.871094 232.480469 43.945312 C 232.851562 44.019531 232.851562 44.128906 233 44.28125 C 233.148438 44.429688 233.242188 44.761719 233.253906 44.875 C 233.257812 44.988281 233.335938 45.335938 233.445312 45.457031 C 233.558594 45.578125 233.449219 45.691406 233.742188 45.949219 C 234.039062 46.210938 233.964844 46.234375 234.375 46.335938 C 234.785156 46.433594 234.785156 46.433594 234.785156 46.433594 C 234.785156 46.433594 234.859375 46.542969 234.785156 46.988281 C 234.703125 47.4375 234.8125 48.660156 234.8125 48.660156 Z M 230.476562 44.605469 C 230.277344 44.917969 230.050781 45.230469 230.21875 45.457031 C 230.441406 45.765625 230.253906 45.988281 230.664062 46.285156 C 231.070312 46.582031 231 46.582031 231.179688 46.804688 C 231.367188 47.023438 231.035156 47.398438 231.40625 47.769531 C 231.777344 48.140625 231.738281 48.550781 232.253906 48.324219 C 232.773438 48.105469 232.484375 48.546875 232.792969 47.878906 C 232.835938 47.789062 232.882812 47.722656 232.925781 47.667969 C 234.894531 50.273438 236.675781 52.941406 238.269531 55.660156 C 237.902344 55.847656 237.734375 56 237.816406 56.371094 C 237.949219 56.941406 238.726562 57.847656 239.273438 58.484375 C 236.246094 60.339844 232.585938 62.011719 228.421875 63.464844 C 225.84375 57.191406 222.828125 51.738281 219.761719 47.097656 C 219.164062 46.191406 218.558594 45.316406 217.949219 44.449219 C 221.332031 43.285156 224.269531 41.914062 226.691406 40.394531 C 228.019531 41.769531 229.285156 43.175781 230.476562 44.605469 Z M 176.992188 90.664062 C 176.988281 90.664062 176.984375 90.664062 176.980469 90.664062 C 173.101562 90.40625 169.316406 90.023438 165.65625 89.527344 C 165.65625 89.507812 165.65625 89.488281 165.65625 89.421875 C 165.65625 89.253906 165.65625 88.640625 165.65625 88.089844 C 165.65625 87.53125 165.769531 87.195312 165.65625 86.640625 C 165.546875 86.085938 165.878906 86.140625 165.992188 85.859375 C 166.101562 85.582031 166.269531 85.695312 166.882812 85.25 C 167.492188 84.804688 166.882812 84.414062 166.769531 84.25 C 166.660156 84.082031 166.714844 83.914062 166.714844 83.636719 C 166.714844 83.355469 166.996094 83.414062 166.996094 83.246094 C 166.996094 83.078125 168.886719 82.078125 169.886719 81.746094 C 170.886719 81.410156 170.277344 81.523438 170.886719 81.46875 C 171.5 81.410156 171.613281 81.691406 172.847656 82.300781 C 174.078125 82.914062 173.445312 82.355469 173.890625 82.300781 C 174.335938 82.242188 174.671875 82.300781 175.0625 82.300781 C 175.449219 82.300781 175.617188 82.078125 175.671875 81.910156 C 175.726562 81.746094 175.335938 81.523438 175.335938 81.355469 C 175.335938 81.1875 176.0625 81.300781 176.394531 81.300781 C 176.722656 81.300781 177.171875 81.300781 177.785156 81.300781 C 178.394531 81.300781 178.675781 81.355469 178.953125 81.632812 C 179.230469 81.914062 179.453125 82.078125 180.121094 82.414062 C 180.789062 82.75 180.566406 82.46875 180.957031 82.46875 C 181.34375 82.46875 181.34375 82.46875 181.734375 82.46875 C 182.125 82.46875 181.957031 82.914062 182.015625 83.414062 C 182.070312 83.917969 182.234375 84.25 182.234375 84.25 C 182.234375 84.25 182.234375 84.25 182.234375 84.914062 C 182.234375 85.585938 182.402344 85.417969 182.570312 85.527344 C 182.738281 85.636719 183.570312 87.257812 184.242188 87.144531 C 184.90625 87.03125 184.574219 86.921875 184.796875 86.585938 C 185.019531 86.25 185.074219 85.304688 185.074219 85.304688 C 185.074219 85.304688 184.683594 84.804688 184.574219 84.582031 C 184.460938 84.359375 184.242188 83.636719 184.1875 83.300781 C 184.128906 82.964844 184.074219 82.464844 183.960938 82.300781 C 183.851562 82.132812 183.960938 81.355469 183.910156 80.742188 C 183.851562 80.128906 184.128906 80.074219 184.1875 79.851562 C 184.242188 79.632812 184.6875 79.296875 184.796875 79.128906 C 184.910156 78.960938 185.410156 78.628906 185.632812 78.292969 C 185.777344 78.078125 186.023438 77.945312 186.289062 77.8125 C 186.222656 81.964844 186.175781 86.175781 186.152344 90.40625 C 185.652344 90.183594 184.910156 89.796875 184.910156 89.796875 C 184.910156 89.796875 184.351562 89.3125 183.910156 89.199219 C 183.464844 89.089844 182.851562 89.199219 182.296875 89.199219 C 181.738281 89.199219 180.515625 89.398438 180.347656 89.796875 C 180.183594 90.199219 179.957031 90.703125 179.957031 90.703125 C 179.957031 90.703125 180.183594 90.703125 180.515625 90.703125 C 180.847656 90.703125 180.847656 90.535156 181.183594 90.425781 C 181.519531 90.3125 181.460938 89.761719 181.90625 89.925781 C 182.351562 90.089844 182.964844 89.707031 183.351562 89.925781 C 183.738281 90.144531 184.351562 90.703125 184.351562 90.703125 C 184.351562 90.703125 184.464844 90.425781 184.632812 90.703125 C 184.691406 90.804688 184.859375 90.90625 185.058594 91.007812 C 182.328125 90.957031 179.640625 90.839844 176.992188 90.664062 Z M 171.644531 35.953125 C 172.558594 35.839844 172.445312 35.507812 173.332031 35.230469 C 174.226562 34.949219 174.28125 34.558594 174.671875 34.78125 C 175.0625 35.003906 174.558594 35.449219 175.113281 35.5625 C 175.671875 35.671875 175.785156 36.15625 176.394531 36 C 177.007812 35.839844 176.503906 36.230469 177.007812 35.839844 C 177.507812 35.453125 177.675781 36.007812 177.507812 35.453125 C 177.339844 34.894531 176.726562 34.558594 176.617188 34.0625 C 176.503906 33.5625 176.285156 34.042969 176.394531 33.359375 C 176.503906 32.671875 176.449219 32.558594 176.5625 32.222656 C 176.671875 31.890625 176.671875 31.78125 176.671875 31.445312 C 176.671875 31.109375 176.839844 31.222656 175.949219 31.109375 C 175.890625 31.105469 175.832031 31.105469 175.777344 31.105469 C 176.167969 30.65625 176.554688 30.230469 176.9375 29.804688 C 177.761719 29.574219 177.042969 29.765625 177.839844 29.554688 C 178.046875 29.5 178.164062 29.484375 178.234375 29.480469 C 178.265625 29.484375 178.300781 29.496094 178.332031 29.5 C 178.347656 29.511719 178.359375 29.511719 178.378906 29.507812 C 178.882812 29.597656 179.402344 29.664062 179.921875 29.742188 C 179.894531 29.859375 180.042969 29.8125 180.210938 29.984375 C 180.402344 30.164062 179.957031 30.109375 180.402344 30.164062 C 180.84375 30.222656 180.34375 30.164062 180.84375 30.222656 C 181.347656 30.277344 181.234375 30.5 181.570312 30.222656 C 181.605469 30.1875 181.632812 30.171875 181.660156 30.144531 C 180.996094 31.632812 180.289062 33.257812 179.5625 34.953125 C 179.308594 35.238281 179.351562 35.195312 179.433594 35.257812 C 179.003906 36.253906 178.578125 37.289062 178.136719 38.347656 C 177.941406 38.359375 178.0625 38.121094 178.0625 38.121094 C 178.0625 38.121094 178.0625 37.566406 177.730469 37.398438 C 177.398438 37.230469 177.730469 37.398438 177.230469 37.507812 C 176.726562 37.621094 176.898438 37.5625 176.617188 37.453125 C 176.339844 37.339844 175.894531 37.230469 175.390625 36.953125 C 174.894531 36.671875 175.0625 36.839844 174.726562 36.671875 C 174.394531 36.503906 174.335938 36.394531 174.058594 36.003906 C 173.78125 35.617188 173.394531 36.394531 173.222656 36.507812 C 173.058594 36.617188 171.835938 36.953125 171.835938 36.953125 C 171.835938 36.953125 171.835938 36.953125 171.835938 36.730469 C 171.835938 36.507812 171.445312 36.507812 171.445312 36.507812 C 171.445312 36.507812 171.328125 36.535156 171.148438 36.558594 C 171.3125 36.359375 171.480469 36.152344 171.644531 35.953125 Z M 184.410156 26.773438 C 184.351562 27.273438 184.6875 27.441406 184.851562 27.46875 C 185.019531 27.496094 185.019531 28.050781 185.019531 28.050781 C 185.019531 28.050781 183.851562 28.71875 183.738281 28.554688 C 183.699219 28.488281 183.582031 28.410156 183.457031 28.335938 C 183.757812 27.671875 184.050781 27.035156 184.332031 26.425781 C 184.382812 26.546875 184.421875 26.660156 184.410156 26.773438 Z M 189.46875 25.382812 C 189.636719 25.269531 190.027344 24.269531 190.085938 23.988281 C 190.136719 23.710938 190.085938 23.269531 190.085938 22.933594 C 190.085938 22.597656 189.578125 22.488281 189.1875 22.378906 C 189.121094 22.359375 189.0625 22.363281 189.003906 22.367188 C 189.082031 20.730469 189.148438 19.464844 189.1875 18.644531 C 189.816406 19.390625 190.824219 20.65625 192.066406 22.4375 C 191.921875 22.53125 191.761719 22.644531 191.675781 22.730469 C 191.5625 22.839844 190.898438 23.027344 190.859375 23.175781 C 190.824219 23.324219 190.710938 23.65625 190.710938 23.65625 C 190.710938 23.65625 191.003906 23.953125 190.710938 24.140625 C 190.414062 24.320312 190.304688 25.140625 190.449219 25.289062 C 190.597656 25.4375 190.710938 25.507812 190.636719 25.695312 C 190.5625 25.882812 190.117188 26.289062 190.007812 26.363281 C 189.894531 26.4375 189.484375 26.773438 189.449219 27.070312 C 189.414062 27.367188 189.597656 27.8125 189.710938 28.070312 C 189.820312 28.328125 190.078125 27.996094 190.042969 28.625 C 190.023438 28.933594 190.066406 29.226562 190.1875 29.417969 C 189.683594 29.429688 189.175781 29.445312 188.667969 29.445312 C 188.726562 28.144531 188.78125 26.941406 188.832031 25.828125 C 188.996094 25.667969 189.335938 25.46875 189.46875 25.382812 Z M 188.441406 52.421875 C 188.535156 52.835938 188.175781 53.042969 187.761719 53.222656 C 187.792969 52.140625 187.832031 51.066406 187.867188 50.015625 C 188.214844 50.203125 188.15625 50.308594 188.441406 51.085938 C 188.746094 51.921875 188.300781 51.808594 188.441406 52.421875 Z M 183.074219 29.167969 C 183.101562 29.183594 183.121094 29.191406 183.148438 29.203125 C 183.117188 29.199219 183.09375 29.195312 183.066406 29.191406 C 183.066406 29.183594 183.070312 29.175781 183.074219 29.167969 Z M 187.734375 30.324219 C 187.714844 30.828125 187.695312 31.34375 187.667969 31.871094 C 187.59375 31.824219 187.527344 31.773438 187.449219 31.722656 C 187.097656 31.5 186.242188 31.441406 185.574219 31.441406 C 184.910156 31.441406 184.019531 32.109375 183.574219 32.386719 C 183.128906 32.667969 183.574219 32.386719 182.960938 33.78125 C 182.351562 35.171875 183.128906 34.226562 183.238281 34.78125 C 183.351562 35.339844 183.238281 34.78125 183.351562 35.058594 C 183.464844 35.339844 183.910156 35.507812 184.1875 36.0625 C 184.464844 36.617188 184.242188 36.453125 184.1875 36.953125 C 184.132812 37.453125 183.964844 37.5625 183.628906 38.0625 C 183.296875 38.566406 183.410156 38.453125 182.964844 38.621094 C 182.515625 38.785156 182.683594 38.566406 182.683594 38.566406 C 182.683594 38.566406 182.796875 37.339844 182.738281 37.175781 C 182.683594 37.007812 182.738281 36.617188 182.515625 36.726562 C 182.296875 36.839844 182.015625 37.0625 181.851562 36.785156 C 181.683594 36.503906 181.738281 36.394531 181.738281 36.394531 C 181.738281 36.394531 181.183594 36.058594 181.070312 35.894531 C 180.960938 35.726562 181.183594 35.394531 181.183594 35.394531 C 181.183594 35.394531 181.519531 34.894531 181.519531 34.726562 C 181.519531 34.558594 181.519531 34.171875 181.519531 34.171875 L 181.40625 33.445312 L 181.40625 32.929688 C 181.449219 32.832031 181.492188 32.734375 181.53125 32.640625 L 181.90625 32.386719 L 182.742188 32.054688 L 182.910156 31.332031 L 183.242188 30.832031 C 183.242188 30.832031 184.636719 30.886719 184.855469 30.886719 C 185.078125 30.886719 186.359375 30.941406 186.582031 30.941406 C 186.789062 30.941406 186.894531 30.382812 186.910156 30.300781 C 187.183594 30.3125 187.460938 30.316406 187.734375 30.324219 Z M 188.441406 35.898438 C 188.691406 36.007812 188.800781 36.398438 189.023438 37.011719 C 189.25 37.621094 189.136719 37.511719 189.304688 37.511719 C 189.46875 37.511719 189.804688 37.898438 189.804688 37.898438 C 189.804688 37.898438 190.636719 38.625 190.636719 39.066406 C 190.636719 39.511719 190.472656 39.511719 190.195312 39.734375 C 189.914062 39.957031 189.804688 40.292969 189.75 40.625 C 189.691406 40.960938 189.972656 41.515625 189.640625 41.570312 C 189.304688 41.625 189.304688 41.625 188.445312 41.625 C 188.332031 41.625 188.238281 41.632812 188.167969 41.644531 C 188.238281 39.621094 188.320312 37.691406 188.394531 35.871094 C 188.40625 35.875 188.429688 35.890625 188.441406 35.898438 Z M 176.40625 47.304688 C 176.402344 47.25 176.394531 47.214844 176.394531 47.136719 C 176.394531 46.582031 176.675781 46.246094 176.839844 45.636719 C 177.007812 45.023438 177.175781 45.246094 178.34375 44.351562 C 179.511719 43.464844 179.011719 44.074219 179.457031 43.964844 C 179.902344 43.855469 179.789062 43.910156 180.066406 43.296875 C 180.34375 42.6875 180.792969 42.960938 181.457031 42.628906 C 182.125 42.296875 181.457031 42.628906 182.125 42.296875 C 182.792969 41.964844 182.125 42.296875 182.070312 41.683594 C 182.015625 41.074219 181.625 41.238281 182.347656 41.238281 C 183.074219 41.238281 182.90625 40.960938 182.90625 40.960938 C 182.90625 40.960938 182.90625 40.960938 183.128906 40.570312 C 183.347656 40.179688 183.515625 40.683594 183.683594 40.683594 C 183.847656 40.683594 184.1875 40.683594 184.683594 40.402344 C 185.183594 40.125 185.519531 39.957031 185.796875 39.738281 C 186.078125 39.515625 186.132812 39.457031 186.242188 38.902344 C 186.351562 38.347656 186.019531 38.402344 185.964844 38.011719 C 185.90625 37.621094 186.132812 37.566406 186.074219 37.230469 C 186.019531 36.898438 186.019531 36.730469 186.019531 36.730469 C 186.019531 36.730469 186.019531 36.453125 186.183594 36.0625 C 186.351562 35.671875 186.464844 36.007812 186.796875 35.839844 C 187.128906 35.675781 187.296875 35.785156 187.449219 35.5625 C 187.460938 35.542969 187.492188 35.550781 187.511719 35.542969 C 187.359375 39.261719 187.199219 43.4375 187.042969 47.953125 C 183.367188 47.902344 179.804688 47.683594 176.40625 47.304688 Z M 183.511719 30.140625 C 183.507812 30.542969 183.394531 30.5 183.074219 30.5 C 182.804688 30.5 182.625 30.589844 182.375 30.730469 C 182.472656 30.503906 182.574219 30.285156 182.671875 30.0625 C 182.953125 30.089844 183.226562 30.121094 183.511719 30.140625 Z M 179.878906 36.480469 C 179.964844 36.5625 180.046875 36.640625 180.070312 36.785156 C 180.125 37.175781 180.070312 36.785156 179.902344 37.066406 C 179.734375 37.34375 179.675781 37.453125 179.359375 37.726562 C 179.53125 37.304688 179.703125 36.886719 179.878906 36.480469 Z M 187.015625 48.84375 C 186.964844 50.414062 186.910156 52.019531 186.855469 53.664062 C 186.601562 53.84375 186.550781 54.035156 186.46875 54.535156 C 186.355469 55.199219 186.746094 54.925781 186.691406 55.925781 C 186.632812 56.925781 186.632812 56.425781 186.1875 56.980469 C 185.742188 57.539062 185.519531 57.261719 185.183594 57.203125 C 184.851562 57.148438 184.519531 56.089844 184.410156 55.367188 C 184.296875 54.644531 184.519531 54.644531 184.460938 53.921875 C 184.410156 53.199219 184.183594 53.253906 183.625 52.863281 C 183.070312 52.472656 182.90625 52.644531 182.347656 52.472656 C 181.789062 52.308594 181.734375 52.363281 181.011719 52.03125 C 180.289062 51.695312 180.902344 51.585938 180.511719 51.140625 C 180.121094 50.695312 179.730469 50.582031 179.230469 50.304688 C 178.730469 50.027344 178.339844 49.804688 178.003906 49.695312 C 177.671875 49.582031 177.617188 49.246094 177.558594 48.691406 C 177.542969 48.515625 177.484375 48.398438 177.410156 48.296875 C 180.503906 48.613281 183.714844 48.796875 187.015625 48.84375 Z M 177.898438 61.214844 C 178.121094 61.214844 178.785156 60.710938 179.679688 60.132812 C 179.679688 60.132812 179.679688 60.132812 180.011719 60.320312 C 180.347656 60.507812 180.011719 60.320312 179.957031 60.488281 C 179.902344 60.65625 180.234375 60.65625 180.511719 61.101562 C 180.792969 61.546875 182.238281 62.492188 182.125 62.769531 C 182.015625 63.050781 182.125 62.769531 180.234375 63.050781 C 178.34375 63.328125 180.234375 63.050781 179.679688 62.992188 C 179.121094 62.9375 179.121094 62.546875 178.785156 62.4375 C 178.453125 62.328125 178.507812 62.046875 177.839844 61.992188 C 177.175781 61.9375 177.839844 61.992188 177.230469 62.046875 C 176.617188 62.105469 176.953125 62.160156 176.449219 62.046875 C 175.953125 61.9375 175.953125 61.769531 175.953125 61.769531 C 175.953125 61.769531 177.675781 61.214844 177.898438 61.214844 Z M 196.875 47.648438 C 196.691406 47.339844 196.527344 47.070312 196.3125 46.859375 C 195.980469 46.523438 196.3125 46.859375 195.925781 47.414062 C 195.535156 47.972656 195.925781 47.414062 196.011719 47.636719 C 196.019531 47.65625 196.011719 47.683594 196 47.703125 C 195.21875 47.761719 194.425781 47.796875 193.628906 47.835938 C 193.398438 47.710938 193.15625 47.539062 192.921875 47.300781 C 192.472656 46.855469 192.863281 46.742188 192.753906 46.1875 C 192.644531 45.632812 192.695312 45.910156 192.308594 45.746094 C 191.917969 45.578125 191.808594 45.578125 191.644531 45.300781 C 191.476562 45.019531 191.027344 44.910156 190.699219 44.800781 C 190.359375 44.6875 189.972656 44.6875 189.136719 44.578125 C 188.300781 44.464844 188.691406 44.742188 188.445312 45.078125 C 188.304688 45.261719 188.144531 45.550781 188.007812 45.988281 C 188.039062 45.105469 188.066406 44.238281 188.101562 43.386719 C 188.210938 43.378906 188.328125 43.351562 188.441406 43.296875 C 188.800781 43.128906 189.25 42.628906 189.25 42.628906 C 189.25 42.628906 189.804688 42.910156 190.414062 43.464844 C 191.027344 44.019531 191.417969 44.351562 191.804688 44.855469 C 192.191406 45.355469 192.53125 45.578125 193.640625 45.078125 C 194.753906 44.578125 193.976562 45.023438 194.753906 44.855469 C 195.535156 44.6875 194.976562 44.351562 194.753906 44.074219 C 194.53125 43.796875 194.144531 43.742188 193.585938 43.519531 C 193.03125 43.296875 193.085938 43.128906 193.585938 43.183594 C 194.085938 43.242188 194.699219 43.242188 195.421875 43.015625 C 196.148438 42.796875 195.699219 42.410156 195.699219 42.410156 C 195.699219 42.410156 194.8125 42.070312 193.921875 41.351562 C 193.03125 40.628906 193.363281 40.738281 193.253906 40.40625 C 193.144531 40.070312 193.980469 40.238281 194.199219 40.238281 C 194.421875 40.238281 194.699219 40.628906 195.257812 41.128906 C 195.8125 41.628906 195.589844 41.019531 195.589844 40.851562 C 195.589844 40.683594 195.367188 39.738281 195.144531 39.125 C 194.925781 38.511719 194.144531 38.84375 193.867188 38.679688 C 193.585938 38.511719 192.476562 37.511719 192.363281 37.34375 C 192.253906 37.175781 192.195312 35.117188 191.808594 34.839844 C 191.421875 34.558594 190.914062 34.449219 190.582031 34.171875 C 190.246094 33.894531 189.804688 33.613281 189.472656 33.339844 C 189.167969 33.085938 188.824219 32.714844 188.535156 32.476562 C 188.566406 31.742188 188.597656 31.027344 188.628906 30.339844 C 190.578125 30.335938 192.472656 30.234375 194.304688 30.0625 C 194.714844 30.464844 195.128906 30.898438 195.421875 31.152344 C 195.902344 31.558594 196.464844 31.628906 196.535156 32.707031 C 196.609375 33.78125 196.945312 33.671875 197.460938 33.671875 C 197.980469 33.671875 198.386719 33.894531 198.5 33.96875 C 198.609375 34.042969 198.242188 34.378906 198.132812 34.636719 C 198.019531 34.894531 197.609375 35.195312 197.980469 35.785156 C 198.351562 36.378906 197.6875 36.753906 198.519531 36.640625 C 199.121094 36.558594 199.476562 36.117188 199.699219 35.890625 C 199.789062 36.09375 199.886719 36.308594 199.984375 36.515625 C 199.960938 36.722656 199.9375 36.945312 199.910156 37.160156 C 199.835938 37.789062 199.226562 38.828125 200.011719 39.496094 C 200.800781 40.164062 200.949219 40.460938 201.578125 40.757812 C 201.695312 40.808594 201.785156 40.871094 201.875 40.925781 C 202.628906 42.785156 203.363281 44.761719 204.074219 46.851562 C 201.757812 47.195312 199.351562 47.460938 196.875 47.648438 Z M 191.160156 29.382812 C 191.722656 29.070312 192.316406 28.644531 192.753906 28.738281 C 193.195312 28.832031 193.074219 28.941406 193.398438 29.246094 C 192.65625 29.304688 191.914062 29.355469 191.160156 29.382812 Z M 203.582031 42.839844 C 204 43.199219 204.054688 43.355469 204.660156 43.574219 C 205.363281 43.835938 205.105469 44.058594 205.511719 44.390625 C 205.917969 44.726562 206.21875 44.6875 206.847656 44.6875 C 207.480469 44.6875 207.738281 45.28125 208.074219 45.355469 C 208.40625 45.429688 208.519531 45.542969 208.777344 45.355469 C 209.035156 45.167969 209.035156 45.617188 209.035156 44.910156 C 209.035156 44.203125 209.1875 44.613281 209.035156 43.796875 C 208.886719 42.980469 208.332031 40.902344 207.8125 39.976562 C 207.292969 39.050781 207.554688 39.089844 208 38.679688 C 208.441406 38.273438 208.921875 38.382812 208.921875 37.679688 C 208.921875 36.972656 208.515625 36.828125 208.921875 35.898438 C 209.089844 35.527344 209.261719 35.390625 209.398438 35.269531 C 211.78125 37.886719 214.199219 40.78125 216.542969 44.011719 C 213.066406 45.125 209.175781 46.039062 204.972656 46.707031 C 204.519531 45.367188 204.054688 44.082031 203.582031 42.839844 Z M 187.777344 29.429688 C 186.527344 29.417969 185.300781 29.367188 184.097656 29.277344 C 183.890625 28.960938 185.035156 29.097656 185.296875 28.941406 C 185.574219 28.773438 186.519531 29.105469 186.519531 29.105469 C 186.519531 29.105469 187.023438 29.21875 187.449219 29.164062 C 187.644531 29.136719 187.699219 29.160156 187.71875 29.191406 C 187.742188 29.136719 187.769531 29.046875 187.800781 28.949219 C 187.792969 29.113281 187.785156 29.269531 187.777344 29.429688 Z M 183.402344 26.320312 C 183.027344 26.117188 182.816406 25.945312 182.558594 25.941406 C 182.238281 25.9375 182.625 26.046875 182.238281 25.9375 C 181.847656 25.828125 181.402344 25.941406 181.402344 25.941406 C 181.179688 26.21875 181.289062 25.882812 181.179688 26.21875 C 181.070312 26.550781 181.070312 27.152344 181.289062 27.132812 C 181.515625 27.105469 181.179688 26.941406 181.515625 27.105469 C 181.847656 27.273438 181.566406 27.273438 181.847656 27.273438 C 182.125 27.273438 182.089844 27.097656 182.304688 27.128906 C 182.515625 27.160156 182.070312 26.882812 182.515625 27.160156 C 182.710938 27.28125 182.820312 27.339844 182.914062 27.378906 C 182.671875 27.90625 182.414062 28.480469 182.15625 29.042969 C 182.148438 29.042969 182.136719 29.027344 182.136719 29.027344 C 182.136719 29.027344 182.113281 29.058594 182.085938 29.09375 C 181.96875 29.078125 181.855469 29.070312 181.738281 29.058594 C 181.738281 29.046875 181.734375 29.042969 181.738281 29.027344 C 181.792969 28.386719 181.792969 28.386719 181.792969 28.386719 L 181.570312 28.101562 C 181.570312 28.101562 181.414062 28.042969 181.101562 28.101562 C 180.792969 28.164062 180.351562 28.554688 180.378906 28.71875 C 180.398438 28.859375 180.574219 28.714844 180.464844 28.890625 C 180.101562 28.839844 179.726562 28.789062 179.367188 28.734375 C 179.378906 28.679688 179.394531 28.628906 179.402344 28.546875 C 179.457031 28.050781 179.402344 27.507812 179.402344 27.507812 C 179.402344 27.507812 179.480469 27.199219 179.691406 26.78125 C 182.605469 23.644531 185.019531 21.238281 186.554688 19.753906 C 185.796875 21.265625 184.703125 23.519531 183.402344 26.320312 Z M 191.695312 69.390625 C 192.03125 68.945312 192.476562 69.613281 193.640625 68.78125 C 194.8125 67.945312 194.089844 68.445312 194.199219 68.167969 C 194.3125 67.890625 194.199219 67.832031 194.199219 67.558594 C 194.199219 67.277344 194.421875 66.832031 194.421875 66.664062 C 194.421875 66.496094 194.753906 66.277344 195.089844 66 C 195.421875 65.722656 195.535156 65.777344 196.035156 65.550781 C 196.535156 65.332031 196.757812 65.109375 196.921875 65 C 197.09375 64.886719 197.261719 64.5 198.316406 63.828125 C 199.371094 63.164062 198.371094 64.21875 198.257812 64.5 C 198.148438 64.777344 197.203125 65.550781 197.371094 66.335938 C 197.535156 67.113281 197.648438 66.554688 198.257812 66.445312 C 198.871094 66.335938 199.816406 65.386719 199.984375 65.109375 C 200.152344 64.828125 201.542969 63.773438 201.488281 63.554688 C 201.433594 63.328125 201.433594 63.050781 201.433594 63.050781 C 201.433594 63.050781 200.933594 62.882812 200.265625 62.550781 C 199.59375 62.214844 200.265625 62.550781 199.265625 62.269531 C 198.261719 61.992188 199.265625 62.269531 198.816406 61.769531 C 198.371094 61.273438 198.816406 61.769531 198.207031 61.546875 C 197.597656 61.328125 198.207031 61.546875 198.207031 61.160156 C 198.207031 60.769531 198.765625 60.878906 199.207031 60.132812 C 199.65625 59.386719 199.488281 59.597656 199.207031 59.265625 C 198.929688 58.933594 198.871094 59.210938 198.261719 59.210938 C 197.648438 59.210938 197.597656 59.265625 196.652344 59.542969 C 195.703125 59.824219 196.652344 59.542969 196.261719 60.136719 C 195.871094 60.726562 195.980469 60.546875 195.703125 60.769531 C 195.425781 60.992188 195.148438 61.160156 194.089844 61.273438 C 193.03125 61.382812 194.089844 61.273438 194.253906 60.9375 C 194.421875 60.601562 194.253906 60.9375 194.8125 60.136719 C 195.367188 59.332031 195.316406 59.65625 195.589844 59.269531 C 195.871094 58.878906 196.425781 58.769531 196.816406 58.488281 C 197.207031 58.210938 197.484375 58.324219 198.039062 58.210938 C 198.597656 58.101562 199.769531 58.210938 200.878906 58.15625 C 201.988281 58.101562 201.824219 57.988281 202.101562 57.652344 C 202.382812 57.320312 202.714844 56.652344 202.828125 56.261719 C 202.941406 55.871094 203.21875 55.929688 203.332031 55.761719 C 203.4375 55.59375 204.050781 55.039062 203.996094 54.703125 C 203.9375 54.371094 203.886719 54.039062 203.605469 53.871094 C 203.328125 53.703125 203.050781 53.703125 202.492188 53.480469 C 201.9375 53.261719 202.050781 53.367188 202.050781 52.703125 C 202.050781 52.035156 202.050781 52.703125 201.882812 52.644531 C 201.71875 52.589844 200.882812 52.203125 200.210938 51.921875 C 199.546875 51.644531 199.882812 51.867188 199.160156 51.699219 C 198.433594 51.535156 198.488281 50.363281 198.210938 50.085938 C 197.972656 49.847656 197.691406 49.097656 197.375 48.496094 C 199.773438 48.300781 202.117188 48.035156 204.371094 47.691406 C 204.785156 48.933594 205.195312 50.207031 205.582031 51.527344 C 206.273438 53.832031 206.929688 56.328125 207.546875 58.988281 C 207.339844 58.773438 207.304688 58.785156 207.113281 58.574219 C 206.863281 58.296875 207.558594 58.324219 206.75 58.15625 C 205.945312 57.988281 205.667969 57.933594 205.445312 57.988281 C 205.222656 58.046875 205.082031 58.019531 205.082031 58.019531 C 205.082031 58.019531 205 57.988281 204.886719 57.878906 C 204.777344 57.769531 204.636719 57.488281 204.636719 57.265625 C 204.636719 57.046875 204.636719 56.769531 204.636719 56.601562 C 204.636719 56.433594 204.75 56.238281 204.609375 56.265625 C 204.46875 56.296875 204.332031 56.265625 204.332031 56.265625 C 203.886719 56.90625 203.386719 57.183594 203.410156 57.378906 C 203.441406 57.574219 203.355469 57.878906 203.410156 58.019531 C 203.46875 58.15625 203.429688 58.324219 203.390625 58.546875 C 203.355469 58.769531 203.242188 58.742188 203.164062 59.160156 C 203.078125 59.578125 202.910156 59.886719 202.910156 59.992188 C 202.910156 60.105469 202.800781 60.160156 202.910156 60.464844 C 203.023438 60.773438 202.160156 60.632812 203.023438 60.773438 C 203.886719 60.910156 203.609375 60.71875 204.496094 60.773438 C 205.386719 60.828125 205.140625 60.6875 205.917969 60.578125 C 206.695312 60.464844 206.917969 60.269531 207.085938 60.296875 C 207.25 60.328125 206.890625 60.59375 206.75 60.824219 C 206.613281 61.050781 207.113281 61.050781 207.476562 61.050781 C 207.734375 61.050781 207.867188 61.160156 208.023438 61.140625 C 208.492188 63.320312 208.921875 65.605469 209.3125 68 C 203.734375 68.816406 197.804688 69.320312 191.664062 69.449219 C 191.675781 69.421875 191.679688 69.414062 191.695312 69.390625 Z M 208.773438 60.398438 C 208.792969 60.332031 208.777344 60.261719 208.722656 60.167969 C 208.015625 56.964844 207.242188 53.996094 206.4375 51.273438 C 206.054688 49.988281 205.660156 48.753906 205.257812 47.542969 C 209.542969 46.851562 213.507812 45.898438 217.046875 44.738281 C 217.722656 45.679688 218.390625 46.628906 219.046875 47.621094 C 222.0625 52.195312 225.035156 57.574219 227.582031 63.757812 C 222.433594 65.488281 216.550781 66.886719 210.1875 67.867188 C 209.761719 65.246094 209.289062 62.757812 208.773438 60.398438 Z M 217.429688 43.730469 C 214.902344 40.222656 212.285156 37.070312 209.707031 34.273438 C 209.703125 34.207031 209.707031 34.15625 209.703125 34.078125 C 209.625 32.632812 209.964844 33.152344 210.183594 32.742188 C 210.410156 32.335938 209.820312 31.742188 209.222656 31.371094 C 208.628906 31 207.328125 30.109375 206.921875 29.554688 C 206.6875 29.238281 206.03125 28.441406 205.40625 27.757812 C 206.636719 27.316406 207.761719 26.824219 208.765625 26.289062 C 213.222656 28.917969 218.058594 32.285156 222.800781 36.597656 C 223.945312 37.636719 225.027344 38.699219 226.085938 39.773438 C 223.707031 41.261719 220.796875 42.597656 217.429688 43.730469 Z M 204.710938 27.050781 C 204.511719 26.863281 204.332031 26.714844 204.214844 26.660156 C 203.660156 26.402344 204.03125 27.070312 203.101562 25.992188 C 202.175781 24.917969 201.730469 25.027344 201.320312 24.878906 C 200.914062 24.734375 200.582031 24.546875 200.097656 24.140625 C 199.617188 23.730469 199.949219 23.957031 199.429688 23.65625 C 198.910156 23.363281 198.804688 23.179688 197.871094 22.546875 C 197.324219 22.171875 196.847656 22.179688 196.539062 22.242188 C 194.417969 20.628906 192.621094 19.394531 191.320312 18.550781 C 191.5625 18.609375 191.859375 18.679688 192.128906 18.746094 C 195.15625 19.695312 200.984375 21.8125 207.859375 25.761719 C 206.910156 26.226562 205.863281 26.660156 204.710938 27.050781 Z M 195.359375 22.472656 C 195.277344 22.457031 195.09375 22.363281 194.683594 22.097656 C 193.640625 21.433594 193.015625 21.171875 192.753906 21.285156 C 192.648438 21.328125 192.542969 21.386719 192.445312 21.4375 C 191.863281 20.625 191.335938 19.90625 190.886719 19.332031 C 192.03125 20.074219 193.550781 21.117188 195.359375 22.472656 Z M 188.097656 22.667969 C 187.648438 22.746094 186.960938 23.269531 186.632812 23.433594 C 186.367188 23.566406 185.980469 23.851562 185.28125 24.40625 C 186.804688 21.195312 187.902344 19.042969 188.320312 18.234375 C 188.277344 19.0625 188.199219 20.570312 188.097656 22.667969 Z M 177.085938 28.3125 C 176.78125 28.25 176.492188 28.179688 176.199219 28.113281 C 176.230469 28.085938 176.242188 28.082031 176.289062 28.050781 C 176.898438 27.550781 176.675781 27.90625 177.175781 27.507812 C 177.675781 27.105469 176.898438 27.441406 177.675781 27.105469 C 178.453125 26.769531 178.453125 26.769531 178.453125 26.769531 L 178.453125 26.160156 L 177.574219 26.214844 C 177.507812 26.324219 177.898438 25.546875 176.953125 26.214844 C 176.007812 26.882812 175.617188 26.769531 175.503906 26.9375 C 175.394531 27.105469 175.007812 27.507812 175.007812 27.507812 C 175.007812 27.507812 174.394531 27.125 174.453125 27.507812 C 174.460938 27.582031 174.464844 27.628906 174.464844 27.679688 C 173.683594 27.464844 172.945312 27.230469 172.230469 26.984375 C 178.082031 23.246094 182.972656 20.660156 185.765625 19.277344 C 183.871094 21.117188 180.789062 24.214844 177.085938 28.3125 Z M 176.210938 29.085938 C 176.128906 29.167969 176.085938 29.25 175.953125 29.441406 C 175.671875 29.832031 174.949219 29.71875 175.671875 29.832031 C 175.691406 29.835938 175.703125 29.839844 175.71875 29.839844 C 175.308594 30.304688 174.90625 30.753906 174.488281 31.234375 C 174.429688 31.1875 174.394531 31.101562 174.394531 30.945312 C 174.394531 30.222656 174.058594 30.835938 174.394531 30.222656 C 174.726562 29.609375 175.003906 29.109375 174.78125 29.054688 C 174.558594 28.996094 173.890625 29.054688 173.890625 29.054688 C 173.390625 29.164062 172.390625 29.164062 171.78125 29.664062 C 171.164062 30.167969 171.054688 30.109375 170.664062 30.609375 C 170.277344 31.113281 170.054688 31.113281 169.941406 31.277344 C 169.832031 31.445312 169.164062 31.765625 169.496094 31.882812 C 169.832031 32 169.941406 31.707031 170.332031 31.882812 C 170.722656 32.058594 171.058594 32.445312 171.058594 32.445312 C 171.058594 32.445312 171.058594 32.667969 171.113281 32.890625 C 171.164062 33.113281 170.441406 33.671875 170.5 33.835938 C 170.554688 34.003906 170.335938 34.449219 170.5 34.78125 C 170.660156 35.105469 170.425781 35.027344 170.902344 35.464844 C 170.585938 35.851562 170.269531 36.234375 169.945312 36.632812 C 169.8125 36.636719 169.765625 36.628906 169.664062 36.566406 C 169.496094 36.453125 169.496094 36.0625 169.496094 36.0625 C 169.496094 36.0625 170 35.726562 170 35.5625 C 170 35.398438 169.945312 35.171875 169.945312 35.171875 L 169.554688 34.671875 C 169.554688 34.671875 168.941406 34.0625 168.855469 33.894531 C 168.765625 33.726562 168.328125 33.613281 168.328125 33.613281 C 168.328125 33.613281 168.21875 32.945312 168.21875 32.386719 C 168.21875 31.832031 167.660156 31.945312 167.660156 31.945312 C 167.660156 31.945312 167.21875 31.945312 166.828125 31.945312 C 166.4375 31.945312 166.214844 32.109375 165.9375 32.167969 C 165.675781 32.21875 165.347656 32.171875 164.625 32.167969 C 166.902344 30.511719 169.125 28.992188 171.226562 27.625 C 172.734375 28.191406 174.394531 28.6875 176.210938 29.085938 Z M 163.917969 32.691406 C 163.933594 32.675781 163.945312 32.667969 163.957031 32.660156 C 163.945312 32.667969 163.9375 32.675781 163.917969 32.691406 Z M 187.449219 110.84375 C 187.292969 110.90625 187.226562 111.011719 187.140625 111.109375 C 187.117188 109.617188 187.097656 108.117188 187.078125 106.613281 C 187.109375 106.710938 187.128906 106.78125 187.128906 106.78125 L 187.6875 107.058594 C 187.691406 107.058594 187.746094 110.730469 187.449219 110.84375 Z M 188.515625 91.046875 C 188.414062 91.046875 188.316406 91.046875 188.210938 91.042969 C 188.1875 91.023438 188.164062 91.003906 188.136719 90.980469 C 187.800781 90.703125 188.027344 90.425781 187.246094 90.480469 C 187.152344 90.488281 187.109375 90.496094 187.035156 90.503906 C 187.0625 86.058594 187.109375 81.625 187.183594 77.265625 C 187.390625 77.109375 187.585938 76.960938 187.855469 76.792969 C 188.300781 76.515625 187.855469 76.792969 188.441406 76.125 C 189.023438 75.457031 188.410156 75.570312 188.441406 75.125 C 188.464844 74.679688 188.746094 72.730469 189.082031 72.898438 C 189.414062 73.0625 189.082031 72.898438 189.804688 72.953125 C 190.53125 73.007812 189.804688 72.953125 190.085938 72.339844 C 190.363281 71.726562 190.699219 71.671875 190.808594 71.394531 C 190.917969 71.121094 191.027344 70.84375 191.195312 70.347656 C 197.582031 70.238281 203.710938 69.742188 209.453125 68.917969 C 210.410156 75.085938 211.074219 81.96875 211.25 89.5625 C 204.074219 90.527344 196.425781 91.046875 188.515625 91.046875 Z M 210.332031 68.789062 C 216.796875 67.8125 222.734375 66.410156 227.9375 64.660156 C 230.308594 70.59375 232.273438 77.25 233.515625 84.648438 C 227.191406 86.714844 219.964844 88.34375 212.136719 89.441406 C 211.953125 81.851562 211.292969 74.964844 210.332031 68.789062 Z M 208.800781 25.273438 C 205.476562 23.339844 202.398438 21.835938 199.710938 20.664062 C 203.070312 21.574219 206.886719 22.6875 210.75 23.964844 C 210.183594 24.421875 209.539062 24.863281 208.800781 25.273438 Z M 186.253906 18.046875 C 183.578125 19.339844 177.976562 22.214844 171.167969 26.609375 C 169.46875 25.945312 168.011719 25.191406 166.855469 24.371094 C 175.160156 20.792969 182.035156 18.859375 185.164062 18.074219 C 185.527344 18.066406 185.886719 18.054688 186.253906 18.046875 Z M 170.214844 27.238281 C 168.015625 28.675781 165.714844 30.257812 163.34375 32.003906 C 163.339844 31.910156 163.355469 31.820312 163.320312 31.722656 C 163.207031 31.386719 163.097656 31 162.929688 30.722656 C 162.765625 30.441406 162.710938 30.054688 162.597656 29.664062 C 162.484375 29.277344 162.539062 29.277344 162.316406 28.886719 C 162.09375 28.496094 161.703125 28.105469 161.589844 27.773438 C 161.480469 27.4375 161.371094 27.4375 161.039062 27.492188 C 160.707031 27.550781 160.703125 27.4375 160.425781 27.550781 C 160.28125 27.605469 160.207031 27.5625 160.066406 27.527344 C 162.054688 26.523438 164.003906 25.617188 165.882812 24.789062 C 167.03125 25.695312 168.488281 26.519531 170.214844 27.238281 Z M 155.085938 30.222656 C 154.917969 30.445312 154.804688 30.445312 154.582031 30.558594 C 154.53125 30.585938 154.488281 30.574219 154.457031 30.542969 C 154.675781 30.417969 154.890625 30.304688 155.109375 30.179688 C 155.101562 30.195312 155.097656 30.203125 155.085938 30.222656 Z M 149.800781 37.453125 C 149.964844 37.453125 149.578125 37.730469 149.300781 37.859375 C 149.113281 37.949219 149.050781 38.242188 149.015625 38.496094 C 148.8125 38.339844 148.613281 38.191406 148.425781 38.035156 C 148.804688 37.855469 149.667969 37.453125 149.800781 37.453125 Z M 150.078125 38.789062 C 150.246094 38.789062 150.746094 38.511719 150.746094 38.511719 C 150.746094 38.511719 151.414062 38.234375 151.46875 37.898438 C 151.527344 37.566406 151.691406 39.457031 151.691406 39.457031 C 151.691406 39.457031 151.789062 39.945312 151.839844 40.359375 C 150.996094 39.878906 150.214844 39.382812 149.5 38.867188 C 149.746094 38.835938 150 38.789062 150.078125 38.789062 Z M 152.476562 42.089844 C 152.585938 42.421875 152.746094 42.910156 152.695312 43.128906 C 152.636719 43.351562 152.582031 43.632812 152.410156 43.855469 C 152.25 44.078125 152.25 45.414062 152.023438 45.636719 C 151.800781 45.859375 152.023438 46.191406 151.859375 46.859375 C 151.691406 47.527344 152.023438 47.695312 152.023438 47.695312 L 151.859375 48.53125 C 151.859375 48.53125 151.582031 49.476562 151.414062 49.8125 C 151.246094 50.144531 151.132812 50.535156 151.132812 50.535156 C 151.132812 50.535156 151.300781 51.648438 150.914062 51.980469 C 150.523438 52.316406 150.914062 51.980469 150.746094 52.148438 C 150.578125 52.316406 150.523438 52.8125 150.414062 53.207031 C 150.300781 53.59375 150.914062 54.429688 150.96875 54.707031 C 151.023438 54.984375 151.023438 55.261719 150.96875 55.488281 C 150.914062 55.707031 151.191406 56.320312 151.023438 56.710938 C 150.855469 57.101562 150.355469 59.046875 150.078125 59.605469 C 149.800781 60.160156 149.1875 60.996094 148.796875 61.550781 C 148.429688 62.078125 148.34375 62.375 147.824219 63.289062 C 143.988281 61.914062 140.617188 60.339844 137.792969 58.605469 C 141.601562 53.230469 145.820312 48.496094 149.976562 44.449219 C 150.804688 43.640625 151.640625 42.855469 152.476562 42.089844 Z M 148.195312 72.277344 C 148.410156 72.425781 148.46875 72.523438 148.855469 72.953125 C 149.355469 73.511719 149.355469 76.566406 149.464844 77.125 C 149.578125 77.679688 150.300781 78.015625 150.300781 78.015625 C 150.300781 78.015625 150.355469 78.40625 150.300781 78.683594 C 150.246094 78.960938 150.300781 79.460938 150.085938 79.683594 C 149.867188 79.90625 150.132812 80.019531 150.132812 80.019531 C 150.132812 80.019531 150.019531 80.296875 150.132812 80.519531 C 150.246094 80.742188 150.132812 81.019531 150.132812 81.019531 C 150.132812 81.019531 150.6875 81.410156 151.023438 81.578125 C 151.359375 81.742188 151.632812 81.910156 151.582031 82.078125 C 151.523438 82.242188 151.691406 83.523438 151.746094 83.96875 C 151.800781 84.414062 151.96875 84.414062 151.96875 84.636719 C 151.96875 84.859375 152.578125 85.746094 152.578125 85.917969 C 152.578125 86.082031 153.078125 86.359375 153.078125 86.359375 L 153.355469 86.359375 C 153.355469 86.359375 153.46875 85.636719 153.46875 85.472656 C 153.46875 85.304688 153.46875 84.972656 153.46875 84.972656 C 153.46875 84.972656 153.355469 84.691406 153.078125 84.472656 C 152.800781 84.25 152.691406 83.578125 152.691406 83.578125 C 152.691406 83.578125 152.691406 82.800781 152.578125 82.636719 C 152.46875 82.46875 152.191406 81.242188 152.191406 81.242188 L 152.023438 80.296875 C 152.023438 80.296875 151.742188 79.351562 151.6875 79.183594 C 151.632812 79.015625 151.632812 78.792969 151.523438 78.574219 C 151.410156 78.351562 151.464844 77.738281 151.464844 77.738281 L 151.023438 76.234375 C 151.023438 76.234375 151.800781 76.015625 152.253906 76.234375 C 152.703125 76.457031 152.746094 77.574219 152.300781 78.238281 C 151.855469 78.90625 154.578125 81.800781 154.578125 81.800781 C 154.578125 81.800781 154.636719 82.414062 154.582031 82.804688 C 154.527344 83.191406 155.136719 83.300781 155.136719 83.691406 C 155.136719 84.082031 157.027344 87.144531 157.308594 87.976562 C 157.328125 88.035156 157.324219 88.097656 157.339844 88.15625 C 152.351562 87.179688 147.683594 85.976562 143.425781 84.582031 C 144.75 80.386719 146.367188 76.273438 148.195312 72.277344 Z M 157.402344 89.054688 C 157.371094 89.582031 157.277344 90.15625 157.3125 90.867188 C 157.363281 92.09375 158.589844 92.816406 158.589844 92.816406 L 159.925781 93.761719 L 161.039062 94.148438 C 161.039062 94.148438 161.339844 94.316406 161.804688 94.558594 C 160.90625 100.875 160.390625 107.320312 160.445312 113.675781 C 152.804688 112.398438 145.78125 110.613281 139.671875 108.425781 C 139.65625 107.417969 139.65625 106.40625 139.691406 105.386719 C 139.898438 98.636719 141.179688 91.929688 143.175781 85.398438 C 147.53125 86.835938 152.3125 88.0625 157.402344 89.054688 Z M 162.640625 94.992188 C 164.023438 95.691406 165.957031 96.597656 166.992188 96.765625 C 168.71875 97.046875 169.441406 96.378906 170.21875 96.765625 C 171 97.15625 172.277344 98.546875 173.003906 99.324219 C 173.726562 100.105469 173.667969 99.605469 174.117188 99.882812 C 174.558594 100.15625 174.726562 99.9375 175.726562 100.21875 C 176.726562 100.492188 177.730469 102.441406 177.730469 102.886719 C 177.730469 103.328125 178.0625 103.722656 178.453125 104.386719 C 178.84375 105.058594 179.117188 104.386719 179.734375 104.386719 C 180.347656 104.386719 180.734375 105.894531 181.015625 105.835938 C 181.292969 105.78125 182.183594 105.78125 182.183594 105.78125 C 182.183594 105.78125 183.128906 106.335938 183.574219 106.78125 L 184.296875 106.117188 L 185.074219 105.5 L 185.742188 105.222656 C 185.742188 105.222656 185.949219 105.308594 186.179688 105.410156 C 186.199219 107.480469 186.226562 109.539062 186.265625 111.582031 C 185.898438 111.851562 185.492188 112.222656 185.246094 112.402344 C 184.851562 112.683594 184.574219 114.128906 184.132812 115.074219 C 184.011719 115.328125 183.929688 115.601562 183.871094 115.875 C 176.011719 115.667969 168.417969 114.96875 161.335938 113.824219 C 161.273438 107.570312 161.765625 101.21875 162.640625 94.992188 Z M 183.753906 116.761719 C 183.738281 117.082031 183.738281 117.34375 183.738281 117.40625 C 183.738281 117.574219 184.1875 118.019531 184.1875 118.46875 C 184.1875 118.90625 184.1875 118.46875 183.960938 118.523438 C 183.738281 118.574219 183.40625 119.414062 183.183594 119.6875 C 182.960938 119.96875 183.183594 120.96875 183.183594 121.300781 C 183.183594 121.632812 183.628906 122.082031 184.128906 122.25 C 184.492188 122.371094 185.789062 123.058594 186.585938 123.597656 C 186.742188 127.894531 186.945312 132.039062 187.207031 135.957031 C 179.128906 135.894531 171.285156 135.292969 163.941406 134.210938 C 162.257812 128.042969 161.46875 121.476562 161.339844 114.785156 C 168.359375 115.886719 175.902344 116.5625 183.753906 116.761719 Z M 187.503906 124.5625 C 187.828125 125.074219 188.207031 125.734375 188.410156 125.980469 C 188.683594 126.3125 188.636719 126.976562 188.441406 127.316406 C 188.242188 127.648438 188.972656 127.757812 189.136719 128.203125 C 189.300781 128.648438 189.578125 128.59375 189.691406 128.871094 C 189.804688 129.148438 190.246094 129.539062 190.527344 129.984375 C 190.804688 130.429688 192.195312 130.984375 192.921875 131.042969 C 193.640625 131.09375 195.757812 131.597656 195.980469 132.269531 C 196.0625 132.515625 195.976562 133.996094 195.804688 135.8125 C 193.398438 135.914062 190.972656 135.972656 188.515625 135.972656 C 188.378906 135.972656 188.238281 135.96875 188.097656 135.96875 C 187.855469 132.339844 187.660156 128.519531 187.503906 124.5625 Z M 188.515625 136.867188 C 190.941406 136.867188 193.339844 136.800781 195.714844 136.707031 C 195.402344 139.644531 194.914062 143.023438 194.535156 143.503906 C 193.902344 144.292969 193.71875 144.097656 192.515625 149.273438 C 191.453125 149.300781 190.386719 149.335938 189.328125 149.339844 C 188.859375 145.5625 188.46875 141.367188 188.15625 136.859375 C 188.277344 136.859375 188.398438 136.867188 188.515625 136.867188 Z M 202.660156 148.234375 C 202.765625 148.066406 203.660156 148.011719 203.882812 147.957031 C 203.882812 147.957031 203.890625 147.953125 203.898438 147.949219 C 203.855469 148.097656 203.816406 148.242188 203.78125 148.386719 C 203.371094 148.441406 202.96875 148.472656 202.5625 148.519531 C 202.597656 148.378906 202.632812 148.269531 202.660156 148.234375 Z M 221.8125 112.78125 C 221.140625 112.574219 221.117188 112.621094 220.742188 112.570312 C 220.351562 112.515625 219.738281 112.457031 218.792969 112.066406 C 217.847656 111.675781 216.957031 112.179688 216.957031 112.179688 L 217.957031 111.285156 C 217.957031 111.285156 218.015625 110.5625 217.457031 109.5625 C 216.734375 106.167969 212.390625 106.445312 212.058594 106.445312 C 211.960938 106.445312 211.851562 106.449219 211.738281 106.441406 C 212.128906 100.765625 212.257812 95.386719 212.160156 90.332031 C 220.015625 89.226562 227.285156 87.585938 233.664062 85.507812 C 234.816406 92.777344 235.253906 100.761719 234.691406 109.4375 C 230.71875 110.726562 226.402344 111.851562 221.8125 112.78125 Z M 234.523438 85.226562 C 237.785156 84.125 240.796875 82.910156 243.53125 81.589844 C 243.695312 82.832031 244.003906 83.972656 244.609375 84.691406 C 246.113281 86.472656 246.113281 86.363281 246.054688 87.753906 C 246 89.144531 246 89.976562 246.335938 90.199219 C 246.671875 90.425781 247.394531 91.761719 247.726562 92.203125 C 248.058594 92.648438 248.007812 93.148438 248.503906 93.816406 C 248.984375 94.457031 248.621094 94.742188 250.453125 95.257812 C 250.675781 97.527344 250.828125 99.769531 250.917969 101.984375 C 246.800781 104.714844 241.613281 107.117188 235.609375 109.136719 C 236.140625 100.46875 235.6875 92.496094 234.523438 85.226562 Z M 250.339844 58.261719 C 250.339844 58.261719 249.058594 57.484375 248.835938 57.765625 C 248.617188 58.042969 247.394531 59.542969 247.394531 59.542969 C 247.394531 59.542969 246.890625 61.214844 246.777344 61.382812 C 246.671875 61.546875 244.332031 63.4375 244.21875 63.605469 C 244.121094 63.761719 243.933594 64.238281 243.855469 64.824219 C 243.4375 63.84375 243.003906 62.882812 242.558594 61.941406 C 242.628906 61.941406 242.691406 61.929688 242.777344 61.9375 C 243.5 61.992188 244.5 61.890625 244.667969 62.027344 C 244.835938 62.164062 245.335938 61.9375 245.835938 61.328125 C 246.335938 60.714844 246.117188 60.324219 245.835938 59.378906 C 245.554688 58.433594 245.003906 57.933594 244.890625 57.207031 C 244.808594 56.671875 244.636719 56.4375 244.527344 55.746094 C 245.707031 54.652344 246.699219 53.511719 247.488281 52.339844 C 248.628906 54.261719 249.679688 56.246094 250.628906 58.28125 Z M 217.753906 25.535156 C 216.015625 24.855469 214.230469 24.207031 212.433594 23.589844 C 212.644531 23.359375 212.824219 23.121094 212.992188 22.882812 C 214.421875 23.449219 215.835938 24.050781 217.222656 24.707031 C 217.351562 24.976562 217.542969 25.265625 217.753906 25.535156 Z M 211.5 23.277344 C 205.082031 21.128906 198.699219 19.429688 194.359375 18.359375 C 200.558594 18.976562 206.519531 20.410156 212.136719 22.546875 C 211.953125 22.796875 211.738281 23.042969 211.5 23.277344 Z M 180.863281 18.335938 C 177.140625 19.441406 171.949219 21.1875 166.066406 23.746094 C 165.386719 23.164062 164.847656 22.554688 164.480469 21.921875 C 169.691406 20.097656 175.179688 18.871094 180.863281 18.335938 Z M 146.460938 35.605469 C 146.425781 35.75 146.390625 35.882812 146.367188 36.015625 C 146.304688 35.945312 146.238281 35.875 146.179688 35.800781 C 146.269531 35.730469 146.367188 35.671875 146.460938 35.605469 Z M 146.105469 36.976562 C 146.046875 37.265625 146.164062 37.398438 146.074219 37.84375 C 145.960938 38.402344 146.074219 37.84375 145.738281 38.011719 C 145.65625 38.050781 145.617188 38.070312 145.597656 38.082031 C 145.597656 38.082031 145.585938 38.085938 145.585938 38.085938 C 145.578125 38.09375 145.5625 38.097656 145.511719 38.121094 C 145.292969 38.234375 145.183594 38.457031 144.960938 38.457031 C 144.738281 38.457031 144.179688 38.789062 144.179688 38.789062 C 144.179688 38.789062 143.679688 39.070312 143.34375 39.070312 C 143.011719 39.070312 143.066406 39.347656 142.679688 39.402344 C 142.289062 39.457031 142.179688 39.457031 141.84375 39.457031 C 141.507812 39.457031 141.84375 40.015625 141.84375 40.015625 C 141.84375 40.015625 143.011719 40.125 143.453125 40.070312 C 143.902344 40.015625 144.070312 39.960938 144.402344 39.847656 C 144.734375 39.738281 145.402344 39.738281 145.683594 39.570312 C 145.960938 39.402344 146.628906 39.015625 146.628906 39.015625 C 146.628906 39.015625 147.464844 38.847656 147.683594 38.792969 C 147.769531 38.769531 147.835938 38.707031 147.886719 38.636719 C 149.050781 39.589844 150.421875 40.5 151.964844 41.347656 C 151.097656 42.144531 150.230469 42.957031 149.375 43.789062 C 145.167969 47.890625 140.894531 52.675781 137.042969 58.125 C 133.640625 55.925781 131.125 53.480469 129.679688 50.863281 C 134.421875 45.140625 139.878906 40.320312 145.511719 36.285156 C 145.699219 36.515625 145.898438 36.746094 146.105469 36.976562 Z M 137.320312 59.285156 C 140.179688 61.039062 143.570312 62.636719 147.417969 64.035156 C 147.175781 64.515625 147.234375 64.550781 147.234375 64.550781 C 147.234375 64.550781 147.40625 66.777344 147.296875 67.671875 C 147.1875 68.558594 147.242188 70.617188 147.296875 71.289062 C 147.324219 71.574219 147.371094 71.703125 147.453125 71.796875 C 145.585938 75.859375 143.929688 80.035156 142.582031 84.300781 C 136.78125 82.332031 131.777344 80 127.828125 77.371094 C 130.257812 70.722656 133.570312 64.683594 137.320312 59.285156 Z M 139.710938 109.496094 C 145.816406 111.65625 152.820312 113.398438 160.453125 114.644531 C 160.574219 121.316406 161.34375 127.882812 162.992188 134.0625 C 156.132812 133.003906 149.738281 131.535156 144.039062 129.699219 C 141.390625 123.316406 139.953125 116.5625 139.710938 109.496094 Z M 164.214844 135.148438 C 171.507812 136.207031 179.277344 136.792969 187.269531 136.84375 C 187.578125 141.359375 187.960938 145.5625 188.433594 149.351562 C 181.769531 149.328125 175.46875 148.753906 169.714844 147.890625 C 167.328125 143.933594 165.523438 139.65625 164.214844 135.148438 Z M 192.3125 150.164062 C 192.308594 150.171875 192.308594 150.175781 192.308594 150.183594 C 190.914062 156.300781 192.308594 157.246094 192.308594 157.246094 C 192.308594 157.246094 193.199219 157.136719 193.363281 156.96875 C 193.53125 156.804688 194.589844 156.804688 194.867188 156.632812 C 195.144531 156.46875 195.144531 156.410156 195.3125 156.136719 C 195.476562 155.855469 195.699219 155.636719 195.699219 155.636719 C 195.699219 155.636719 196.371094 154.964844 196.59375 154.632812 C 196.8125 154.300781 197.148438 154.078125 197.261719 153.742188 C 197.371094 153.410156 197.261719 153.351562 197.261719 153.351562 C 197.261719 153.351562 197.480469 152.742188 197.539062 152.519531 C 197.59375 152.296875 197.929688 152.40625 198.207031 152.296875 C 198.480469 152.183594 198.816406 152.015625 198.929688 151.792969 C 199.042969 151.570312 199.207031 151.019531 199.207031 150.6875 C 199.207031 150.347656 199.65625 150.183594 199.984375 150.015625 C 200.320312 149.847656 200.710938 150.292969 201.488281 150.238281 C 201.828125 150.210938 202.070312 149.859375 202.246094 149.449219 C 202.675781 149.402344 203.101562 149.363281 203.53125 149.3125 C 202.945312 151.519531 202.320312 153.757812 201.65625 156.027344 C 198.070312 156.773438 194.378906 157.238281 190.613281 157.40625 C 190.175781 155.253906 189.792969 152.847656 189.445312 150.230469 C 190.394531 150.226562 191.351562 150.195312 192.3125 150.164062 Z M 204.480469 149.210938 C 212.285156 148.199219 220.269531 146.414062 228.351562 143.929688 C 228.355469 143.929688 228.355469 143.933594 228.363281 143.933594 C 228.457031 143.933594 228.546875 143.902344 228.621094 143.847656 C 228.742188 143.808594 228.863281 143.769531 228.984375 143.734375 C 221.269531 149.472656 212.332031 153.640625 202.644531 155.800781 C 203.289062 153.574219 203.90625 151.375 204.480469 149.210938 Z M 204.730469 148.273438 C 204.773438 148.105469 204.8125 147.941406 204.851562 147.777344 C 205.09375 147.734375 205.328125 147.699219 205.496094 147.679688 C 205.941406 147.621094 206.105469 147.339844 206.71875 147.121094 C 207.328125 146.902344 207.164062 146.902344 207.945312 146.230469 C 208.726562 145.5625 206.054688 144.339844 206.71875 143.78125 C 207.386719 143.226562 206.832031 144.0625 207.5 144.507812 C 208.164062 144.953125 207.945312 144.617188 208.503906 144.617188 C 209.058594 144.617188 209.109375 144.5625 209.78125 144.394531 C 210.445312 144.230469 210.445312 144.394531 211.007812 144.058594 C 211.5625 143.726562 211.007812 144.058594 211.785156 143.449219 C 212.5625 142.835938 212.121094 143.171875 212.785156 142.503906 C 213.453125 141.835938 213.289062 142 213.953125 141.054688 C 214.621094 140.109375 214.453125 140.277344 216.679688 138.945312 C 218.90625 137.609375 217.015625 138.054688 216.902344 137.160156 C 216.792969 136.273438 217.070312 136.550781 217.460938 135.773438 C 217.707031 135.269531 220 134.339844 222 133.539062 C 225.28125 132.84375 228.410156 132.046875 231.378906 131.148438 C 230.460938 135.023438 229.347656 139.003906 228.019531 143.101562 C 220.132812 145.515625 212.347656 147.257812 204.730469 148.273438 Z M 225.277344 131.882812 C 225.234375 131.773438 225.246094 131.578125 225.527344 131.15625 C 226.359375 129.875 226.863281 129.597656 227.027344 129.210938 C 227.195312 128.8125 227.808594 128.09375 227.972656 127.480469 C 228.140625 126.867188 228.195312 127.089844 228.140625 126.703125 C 228.085938 126.308594 227.75 123.859375 228.359375 122.695312 C 228.972656 121.527344 229.808594 121.136719 230.53125 120.023438 C 231.253906 118.90625 231.253906 119.132812 231.8125 118.523438 C 232.367188 117.910156 232.644531 117.183594 232.757812 116.515625 C 232.867188 115.851562 232.757812 115.242188 232.316406 114.792969 C 231.867188 114.34375 231.589844 114.792969 230.980469 114.238281 C 230.367188 113.679688 230.082031 113.628906 228.640625 113.34375 C 227.195312 113.070312 227.695312 113.679688 226.136719 113.566406 C 224.582031 113.453125 225.414062 113.789062 224.355469 113.679688 C 223.390625 113.582031 224.179688 113.65625 224.023438 113.207031 C 227.761719 112.386719 231.308594 111.441406 234.625 110.378906 C 234.171875 116.609375 233.207031 123.195312 231.605469 130.152344 C 229.574219 130.773438 227.464844 131.351562 225.277344 131.882812 Z M 251.835938 102.417969 C 253.503906 101.285156 254.992188 100.09375 256.289062 98.859375 C 255.394531 104.421875 253.847656 109.773438 251.714844 114.816406 C 251.949219 110.496094 251.976562 106.371094 251.835938 102.417969 Z M 251.789062 101.378906 C 251.707031 99.402344 251.582031 97.46875 251.410156 95.585938 C 252.519531 96.121094 251.960938 96.683594 253.289062 95.875 C 254.84375 94.929688 255.734375 93.765625 256.519531 92.757812 C 256.714844 92.5 256.886719 92.253906 257.042969 92.019531 C 256.933594 93.828125 256.75 95.617188 256.5 97.386719 C 255.175781 98.78125 253.597656 100.109375 251.789062 101.378906 Z M 143.792969 33.425781 C 144.078125 34.160156 144.480469 34.878906 144.976562 35.578125 C 139.390625 39.578125 133.972656 44.351562 129.238281 49.996094 C 129.183594 49.878906 129.136719 49.765625 129.089844 49.648438 C 133.117188 43.5 138.085938 38.023438 143.792969 33.425781 Z M 119.75 71.050781 C 121.394531 73.40625 123.761719 75.628906 126.757812 77.683594 C 124.390625 84.347656 122.914062 91.617188 122.777344 99.460938 C 120.789062 97.804688 119.191406 96.058594 118.027344 94.238281 C 117.828125 92.105469 117.714844 89.941406 117.714844 87.753906 C 117.714844 81.996094 118.429688 76.40625 119.75 71.050781 Z M 127.253906 122.894531 C 131.554688 125.796875 137.027344 128.332031 143.375 130.40625 C 145.339844 135.0625 147.933594 139.535156 151.152344 143.800781 C 148.042969 142.890625 145.398438 141.996094 143.300781 141.230469 C 143.144531 141.179688 142.996094 141.238281 142.878906 141.335938 C 136.660156 136.15625 131.367188 129.910156 127.253906 122.894531 Z M 176.574219 156.632812 C 174.167969 154.246094 172.085938 151.652344 170.316406 148.878906 C 175.945312 149.695312 182.078125 150.226562 188.550781 150.242188 C 188.890625 152.863281 189.277344 155.269531 189.707031 157.433594 C 188.957031 157.453125 188.207031 157.484375 187.449219 157.484375 C 183.75 157.484375 180.117188 157.191406 176.574219 156.632812 Z M 230.96875 142.183594 C 230.324219 142.390625 229.6875 142.578125 229.046875 142.78125 C 230.351562 138.691406 231.460938 134.707031 232.363281 130.839844 C 237.617188 129.195312 242.339844 127.253906 246.339844 125.027344 C 242.1875 131.5625 236.988281 137.363281 230.96875 142.183594 Z M 230.96875 142.183594 " fill-opacity="1" fill-rule="nonzero"/></g><path fill="#000000" d="M 192.417969 93.765625 C 192.363281 93.984375 191.527344 93.929688 191.308594 94.320312 C 191.085938 94.707031 190.699219 95.042969 191.308594 95.097656 C 191.917969 95.152344 192.253906 95.042969 192.921875 95.097656 C 193.585938 95.152344 192.921875 95.238281 193.808594 95.113281 C 194.699219 94.988281 194.3125 95.265625 195.203125 94.878906 C 196.089844 94.488281 196.648438 94.433594 197.148438 94.433594 C 197.648438 94.433594 197.648438 93.957031 197.871094 94.109375 C 198.09375 94.265625 198.261719 94.679688 198.261719 94.109375 C 198.261719 93.539062 198.207031 93.332031 197.261719 93.324219 C 196.3125 93.316406 196.039062 93.332031 195.703125 93.324219 C 195.367188 93.316406 194.621094 93.324219 194.621094 93.324219 L 193.8125 93.039062 C 192.699219 93.09375 192.421875 93.324219 192.421875 93.324219 C 192.421875 93.324219 192.921875 93.707031 193.113281 93.765625 C 193.3125 93.816406 192.472656 93.539062 192.417969 93.765625 Z M 192.417969 93.765625 " fill-opacity="1" fill-rule="nonzero"/><path fill="#000000" d="M 200.253906 94.953125 C 200.765625 94.929688 200.488281 95.042969 200.765625 94.929688 C 201.042969 94.816406 200.707031 95.09375 201.042969 94.820312 C 201.378906 94.542969 201.378906 94.539062 201.378906 94.539062 C 201.378906 94.539062 201.488281 94.320312 201.65625 94.320312 C 201.824219 94.320312 201.824219 93.898438 201.65625 94.105469 C 201.492188 94.320312 200.65625 94.105469 200.65625 94.105469 C 200.265625 94.148438 199.933594 94.207031 199.878906 94.320312 C 199.820312 94.429688 199.878906 94.429688 199.878906 94.652344 C 199.878906 94.878906 199.738281 94.972656 200.253906 94.953125 Z M 200.253906 94.953125 " fill-opacity="1" fill-rule="nonzero"/><path fill="#000000" d="M 218.085938 35.414062 C 217.457031 35.339844 217.421875 35.230469 217.121094 34.96875 C 216.820312 34.707031 216.480469 34.632812 216.355469 34.632812 C 216.230469 34.632812 216.046875 34.632812 216.046875 34.632812 C 215.785156 35.003906 215.675781 35.265625 215.636719 35.378906 C 215.601562 35.488281 215.15625 35.785156 215.15625 35.785156 C 215.15625 35.785156 215.117188 35.75 214.859375 35.785156 C 214.601562 35.820312 214.046875 35.117188 213.894531 35.785156 C 213.742188 36.453125 213.527344 36.378906 213.894531 36.824219 C 214.265625 37.269531 215.160156 37.753906 215.566406 38.011719 C 215.972656 38.273438 215.859375 38.53125 216.792969 38.640625 C 217.71875 38.753906 217.347656 39.199219 218.085938 38.421875 C 218.828125 37.640625 218.71875 38.234375 218.867188 37.269531 C 219.015625 36.304688 219.121094 36.421875 218.867188 36.007812 C 218.609375 35.601562 218.71875 35.488281 218.085938 35.414062 Z M 218.085938 35.414062 " fill-opacity="1" fill-rule="nonzero"/><path fill="#000000" d="M 178.320312 33.898438 C 178.300781 33.925781 178.304688 33.9375 178.320312 33.898438 Z M 178.320312 33.898438 " fill-opacity="1" fill-rule="nonzero"/><path fill="#000000" d="M 178.34375 33.726562 C 178.34375 33.820312 178.332031 33.871094 178.320312 33.898438 C 178.34375 33.855469 178.425781 33.777344 178.675781 33.726562 C 179.230469 33.613281 178.957031 33.835938 179.230469 33.613281 C 179.507812 33.394531 179.066406 33.613281 179.507812 33.394531 C 179.957031 33.171875 179.84375 33.613281 179.957031 33.171875 C 180.066406 32.726562 179.789062 33.113281 179.957031 32.53125 C 180.125 31.945312 179.902344 32.335938 180.125 31.945312 C 180.34375 31.558594 180.179688 31.890625 180.34375 31.558594 C 180.511719 31.222656 179.910156 31.277344 179.910156 31.277344 C 179.910156 31.277344 179.789062 31.332031 179.507812 31.613281 C 179.230469 31.890625 178.675781 31.945312 178.453125 32.113281 C 178.230469 32.28125 178.453125 31.722656 178.230469 32.28125 C 178.007812 32.835938 178.117188 32.992188 178.230469 33.359375 C 178.34375 33.726562 178.34375 33.335938 178.34375 33.726562 Z M 178.34375 33.726562 " fill-opacity="1" fill-rule="nonzero"/><path fill="#000000" d="M 184.683594 42.296875 C 184.410156 41.960938 184.515625 41.683594 184.015625 41.683594 C 183.515625 41.683594 183.515625 41.683594 183.515625 41.683594 C 183.515625 41.683594 182.960938 42.019531 182.90625 42.351562 C 182.851562 42.683594 182.496094 42.519531 182.5625 42.851562 C 182.628906 43.183594 182.105469 42.90625 182.5625 43.464844 C 183.015625 44.019531 183.296875 43.90625 183.519531 44.128906 C 183.738281 44.351562 183.296875 44.683594 183.519531 44.796875 C 183.738281 44.90625 183.183594 45.1875 184.015625 44.796875 C 184.855469 44.40625 184.242188 44.960938 184.855469 44.40625 C 185.46875 43.851562 185.410156 44.351562 185.46875 43.851562 C 185.523438 43.351562 185.855469 43.460938 185.46875 43.070312 C 185.074219 42.683594 184.964844 42.628906 184.683594 42.296875 Z M 184.683594 42.296875 " fill-opacity="1" fill-rule="nonzero"/><path fill="#000000" d="M 154.921875 153.195312 L 220.050781 153.195312 C 223.378906 153.195312 226.570312 154.519531 228.921875 156.871094 C 231.273438 159.222656 232.597656 162.414062 232.597656 165.742188 L 232.597656 190.835938 C 232.597656 194.164062 231.273438 197.351562 228.921875 199.707031 C 226.570312 202.058594 223.378906 203.378906 220.050781 203.378906 L 154.921875 203.378906 C 147.996094 203.378906 142.378906 197.765625 142.378906 190.835938 L 142.378906 165.742188 C 142.378906 158.8125 147.996094 153.195312 154.921875 153.195312 Z M 154.921875 153.195312 " fill-opacity="1" fill-rule="nonzero"/><g fill="#fefefe" fill-opacity="1"><g transform="translate(154.812527, 188.28129)"><g><path d="M 22.53125 -21.75 L 22.53125 0 L 18.390625 0 L 7.546875 -13.203125 L 7.546875 0 L 2.578125 0 L 2.578125 -21.75 L 6.75 -21.75 L 17.5625 -8.546875 L 17.5625 -21.75 Z M 22.53125 -21.75 "/></g></g></g><g fill="#fefefe" fill-opacity="1"><g transform="translate(179.917018, 188.28129)"><g><path d="M 2.578125 -21.75 L 7.609375 -21.75 L 7.609375 0 L 2.578125 0 Z M 2.578125 -21.75 "/></g></g></g><g fill="#fefefe" fill-opacity="1"><g transform="translate(190.107954, 188.28129)"><g><path d="M 2.578125 -21.75 L 7.609375 -21.75 L 7.609375 0 L 2.578125 0 Z M 2.578125 -21.75 "/></g></g></g><g fill="#fefefe" fill-opacity="1"><g transform="translate(200.29889, 188.28129)"><g><path d="M 7.609375 -17.71875 L 7.609375 -11.96875 L 17.6875 -11.96875 L 17.6875 -7.921875 L 7.609375 -7.921875 L 7.609375 0 L 2.578125 0 L 2.578125 -21.75 L 19.015625 -21.75 L 19.015625 -17.71875 Z M 7.609375 -17.71875 "/></g></g></g></svg>